<?xml version="1.0" encoding="utf-8"?>
<!-- Generator: Adobe Illustrator 25.4.8, SVG Export Plug-In . SVG Version: 6.00 Build 0)  -->
<svg version="1.1" id="Camada_1" xmlns="http://www.w3.org/2000/svg" xmlns:xlink="http://www.w3.org/1999/xlink" x="0px" y="0px"
	 viewBox="0 0 523.3 339.3" style="enable-background:new 0 0 523.3 339.3;" xml:space="preserve">
<style type="text/css">
	.st0{fill:none;stroke:#000000;stroke-width:5;stroke-linejoin:round;stroke-miterlimit:10;}
	.st1{stroke:#000000;stroke-width:5;stroke-linejoin:round;stroke-miterlimit:10;}
	.st2{fill:#4D4D4D;}
	.st3{fill:none;stroke:#000000;stroke-width:4;stroke-linejoin:round;stroke-miterlimit:10;}
	.st4{fill:#2B0042;}
	.st5{fill:#954BDB;}
	
		.st6{clip-path:url(#SVGID_00000108307208798312623420000011160090716131663749_);fill:url(#SVGID_00000155826110727849458620000001153698574571367851_);}
	.st7{fill:#FFFFFF;}
	
		.st8{clip-path:url(#SVGID_00000183942055823982076160000011717130959323478159_);fill:url(#SVGID_00000096778589361344230600000005945655509137573540_);}
	.st9{fill:#005068;}
	.st10{fill:#D80081;}
	.st11{fill:#0074BC;}
</style>
<g>
	<path class="st5" d="M520,138.9L293,2.2c-2.1-1.3-4.7-1.3-6.8-0.1c-2.1,1.2-3.4,3.4-3.4,5.9v66.2c0,2.4,1.3,4.6,3.3,5.8l156.2,91.4
		L350.7,223l0-49.8c0-2.4-1.3-4.7-3.4-5.9c-2.1-1.2-4.7-1.2-6.8,0.1l-54.5,32.7c-2,1.2-3.3,3.4-3.3,5.8v125.3c0,2.4,1.3,4.6,3.4,5.8
		c1,0.6,2.2,0.9,3.3,0.9c1.2,0,2.4-0.3,3.4-0.9l225.8-132.4l1.3-0.8c2.1-1.2,3.3-3.4,3.3-5.8v-53.6
		C523.3,142.3,522.1,140.1,520,138.9z"/>
	<path class="st7" d="M176.6,178.1c2.5,1.4,5.6,1.4,8.1-0.1l54.5-32.8c2.4-1.4,3.9-4.1,3.9-6.9V8c0-2.9-1.6-5.6-4.1-7
		c-2.5-1.4-5.6-1.4-8.1,0.1L5.1,137l-1.2,0.8c-2.4,1.5-3.9,4.1-3.9,6.9v53.6c0,2.8,1.5,5.5,4,6.9L231,338.3c1.2,0.7,2.6,1.1,4,1.1
		c1.4,0,2.8-0.4,4-1.1c2.5-1.4,4-4.1,4-6.9v-66.1c0-2.9-1.6-5.6-4.1-7L84.8,171.3l87.9-51.4l-0.1,51.2
		C172.6,174,174.1,176.6,176.6,178.1z M228.3,319.6L14.7,194.4v-45.9L228.3,19.9v114.6l-41,24.7l0.1-53.2c0-2.4-1.3-4.6-3.4-5.8
		c-2.1-1.2-4.7-1.2-6.8,0L65.3,165.7c-2.1,1.2-3.4,3.4-3.3,5.9c0,2.4,1.3,4.6,3.4,5.8l163,91.8V319.6z"/>
</g>
<g>
	<defs>
		<path id="SVGID_00000147202721111293508580000004844912410655840686_" d="M523.3,144.6v53.6c0,2.4-1.3,4.6-3.3,5.8l-1.3,0.8
			L292.9,337.1c-1.1,0.6-2.2,0.9-3.4,0.9c-1.2,0-2.3-0.3-3.3-0.9c-2.1-1.2-3.4-3.4-3.4-5.8V206c0-2.4,1.2-4.5,3.3-5.8l54.5-32.7
			c2.1-1.3,4.7-1.3,6.8-0.1c2.1,1.2,3.4,3.4,3.4,5.9l0,49.8l91.7-51.7L286.1,80c-2.1-1.2-3.3-3.4-3.3-5.8V8c0-2.4,1.3-4.7,3.4-5.9
			c2.1-1.2,4.7-1.2,6.8,0.1L520,138.9C522.1,140.1,523.3,142.3,523.3,144.6z"/>
	</defs>
	
		<radialGradient id="SVGID_00000011729648029948696360000004308975523506341294_" cx="491.018" cy="13.2608" r="374.3823" gradientUnits="userSpaceOnUse">
		<stop  offset="0" style="stop-color:#FFFF00"/>
		<stop  offset="1" style="stop-color:#FF00FF;stop-opacity:0"/>
	</radialGradient>
	
		<use xlink:href="#SVGID_00000147202721111293508580000004844912410655840686_"  style="overflow:visible;fill:url(#SVGID_00000011729648029948696360000004308975523506341294_);"/>
	<clipPath id="SVGID_00000023273056626371581870000011791968006435560836_">
		<use xlink:href="#SVGID_00000147202721111293508580000004844912410655840686_"  style="overflow:visible;"/>
	</clipPath>
	
		<radialGradient id="SVGID_00000077324777059615761420000015315287948236509317_" cx="453.0512" cy="12.0815" r="383.9181" gradientUnits="userSpaceOnUse">
		<stop  offset="0" style="stop-color:#FFFF00"/>
		<stop  offset="1" style="stop-color:#FF00FF;stop-opacity:0"/>
	</radialGradient>
	
		<rect x="-92.5" y="-87.9" style="clip-path:url(#SVGID_00000023273056626371581870000011791968006435560836_);fill:url(#SVGID_00000077324777059615761420000015315287948236509317_);" width="708.3" height="507.8"/>
</g>
</svg>
